<svg xmlns="http://www.w3.org/2000/svg" width="1200" height="420" viewBox="0 0 1200 420" role="img" aria-labelledby="title desc">
  <title id="title">Fakkerni logo</title>
  <desc id="desc">Neon reminder and phone mark with Arabic and English wordmark.</desc>
  <rect width="1200" height="420" rx="72" fill="#667178"/>
  <circle cx="210" cy="210" r="142" fill="#F3FF00"/>
  <path fill="#252B35" d="M151 170c15 45 51 81 96 96l31-31c7-7 17-9 26-6 16 5 33 8 50 8 14 0 25 11 25 25v48c0 14-11 25-25 25-133 0-241-108-241-241 0-14 11-25 25-25h48c14 0 25 11 25 25 0 18 3 35 8 50 3 9 1 19-6 26l-32 32z"/>
  <circle cx="303" cy="103" r="29" fill="#667178"/>
  <rect x="297" y="87" width="12" height="22" rx="6" fill="#fff"/>
  <circle cx="303" cy="116" r="6" fill="#fff"/>
  <text x="430" y="205" fill="#fff" font-family="Cairo, sans-serif" font-size="112" font-weight="700">فكّرني</text>
  <text x="437" y="283" fill="#F3FF00" font-family="Cairo, sans-serif" font-size="42" font-weight="600" letter-spacing="8">REMIND ME</text>
</svg>
